 http://img822.imageshack.us/img822/336/mv5bmtc4mdaxmjaznv5bml5.jpg

Complete name : KILLER ELITE (2011) DVDRip [MKV 6ch AC3][RoB]PR3DATOR RG
Format : Matroska
Format version : Version 2
File size : 1.43 GiB
Duration : 1h 56mn
Overall bit rate : 1 752 Kbps
Writing application : Lavf51.12.1
Writing library : Lavf51.12.1

Video
ID : 1
Format : AVC
Format/Info : Advanced Video Codec
Format profile : Baseline@L2.2
Format settings, CABAC : No
Format settings, ReFrames : 5 frames
Format settings, GOP : M=1, N=12
Codec ID : V_MPEG4/ISO/AVC
Duration : 1h 56mn
Bit rate : 1 525 Kbps
Width : 720 pixels
Height : 288 pixels
Display aspect ratio : 2.500
Frame rate mode : Variable
Frame rate : 23.976 fps
Color space : YUV
Chroma subsampling : 4:2:0
Bit depth : 8 bits
Scan type : Progressive
Bits/(Pixel*Frame) : 0.307
Stream size : 1.24 GiB (87%)
Language : English

Audio
ID : 2
Format : AC-3
Format/Info : Audio Coding 3
Mode extension : CM (complete main)
Codec ID : A_AC3
Duration : 1h 56mn
Bit rate mode : Constant
Bit rate : 192 Kbps
Channel(s) : 6 channels
Channel positions : Front: L C R, Side: L R, LFE
Sampling rate : 44.1 KHz
Bit depth : 16 bits
Compression mode : Lossy
Stream size : 160 MiB (11%)
Language : English